<svg viewBox="0 0 40 46" width="40px" height="46px">
                                <g stroke="none" stroke-width="1" fill="none" fill-rule="evenodd">
                                    <g fill-rule="nonzero" fill="#0200FF">
                                        <g>
                                            <path d="M15.008646,17.3026777 L15.008646,14.5764135 C15.124139,14.811375 15.2396321,15.0822245 15.3551251,15.3978972 C15.5121218,15.82836 15.6601007,16.3431246 15.7936384,16.942191 C16.7428527,16.5529792 17.758822,16.3001012 18.8235294,16.2032184 C18.428326,14.4670415 17.8833235,13.1989327 17.253563,12.2447517 C16.6129461,11.2797804 15.8658447,10.661016 15.1728863,10.3184365 C14.5196114,9.99021039 13.9439478,9.91308523 13.5902619,9.90590856 C13.5613886,9.90411508 13.5325154,9.90232114 13.5018358,9.90232114 L5.97677025,9.89873418 C5.94789698,9.89873418 5.91902372,9.90232114 5.88834414,9.90232114 C5.53645066,9.90949598 4.95899462,9.98661837 4.3057197,10.3148491 C3.25907544,10.8314044 2.12941476,11.961352 1.33898029,13.9612246 C0.539537358,15.9718416 0.00180169167,18.8774538 0,23.2628937 C0,24.3964686 0.0360911179,25.6304159 0.115493056,26.9720364 C0.164217266,27.7953108 0.849936495,28.4302376 1.66924423,28.4302376 C1.69992196,28.4302376 1.73059876,28.4284441 1.76127834,28.4266502 C2.62026949,28.3764318 3.27710159,27.6446543 3.22660803,26.7908917 C3.15081687,25.5048756 3.11652929,24.3318588 3.11652929,23.2628877 C3.10931097,18.5762387 3.79687578,15.9434136 4.471771,14.5673102 L4.471771,43.6073617 C4.471771,44.9292382 5.55089191,46 6.87906205,46 C8.20903388,46 9.2881548,44.9292382 9.2881548,43.6073617 L9.2881548,27.2263593 C9.27552263,27.0218906 9.26830478,26.817422 9.26830478,26.6093397 C9.26830478,22.5540361 11.6052375,19.0350316 15.0087716,17.3021607 L15.008646,17.3026777 Z" id="Shape"></path>
                                            <path d="M10.5883707,30.8607595 L10.5883707,43.603751 C10.5883707,44.9276224 11.6427032,46 12.940364,46 C14.2397852,46 15.2941176,44.9276224 15.2941176,43.603751 L15.2941176,35.9030496 C13.2171382,34.8198655 11.5492265,33.0379344 10.5882353,30.8607595 L10.5883707,30.8607595 Z" id="Shape"></path>
                                            <path d="M14.1176471,4.36619092 C14.1176471,6.77946387 12.1429366,8.73417722 9.70678923,8.73417722 C7.26882806,8.73417722 5.29411765,6.77946387 5.29411765,4.36619092 C5.29411765,1.95471334 7.26882806,0 9.70678923,0 C12.1429366,0 14.1176471,1.95471334 14.1176471,4.36619092" id="Shape"></path>
                                            <path d="M35.6916231,10.3148644 C35.0364245,9.98662619 34.4606538,9.90949821 34.108704,9.90232127 C34.0798254,9.90052772 34.0509468,9.89873418 34.0202615,9.89873418 L26.4937951,9.89873418 C26.4649164,9.89873418 26.4360378,9.90232127 26.4053525,9.90232127 C26.0515868,9.90949637 25.47583,9.9866216 24.8224334,10.3148644 C23.7755943,10.8314387 22.6457233,11.9614277 21.8551417,13.9613738 C21.5988426,14.6070687 21.3696109,15.3442776 21.1764706,16.1926992 C22.2413762,16.2805903 23.2593367,16.5245282 24.2105297,16.9047911 C24.4415588,15.8841781 24.715929,15.1236889 24.9884509,14.5676713 L24.9884509,17.2510107 C28.4448775,18.9657618 30.8256325,22.5154767 30.8256325,26.6085818 C30.8256325,27.1359008 30.7859241,27.6524751 30.7083113,28.1600954 L30.7083113,43.6072738 C30.7083113,44.9291989 31.7876331,46 33.1160505,46 C34.4462699,46 35.5255917,44.9291989 35.5255917,43.6072738 L35.5273965,14.5767171 C35.6429111,14.8116872 35.7602323,15.0825466 35.8739402,15.3982309 C36.4226343,16.9103012 36.8846926,19.3927047 36.8828905,23.265313 C36.8828905,24.3325325 36.848597,25.5055923 36.7727913,26.7934465 C36.7222514,27.6472405 37.3774407,28.3790311 38.2383938,28.4292651 C38.2690777,28.4310586 38.2997597,28.4328522 38.330445,28.4328522 C39.1498591,28.4328522 39.8357383,27.797902 39.8844854,26.9745974 C39.963904,25.6311369 40,24.3988891 40,23.2653185 C39.9927808,17.4213709 39.052411,14.1873863 37.7727407,12.2432302 C37.1320046,11.2782235 36.384764,10.6594364 35.6916767,10.3150536 L35.6916231,10.3148644 Z" id="Shape"></path>
                                            <path d="M24.7060178,35.8086261 L24.7060178,43.5697202 C24.7060178,44.9123928 25.7603503,46 27.0580111,46 C28.3574322,46 29.4117647,44.9123928 29.4117647,43.5697202 L29.4117647,30.8607595 C28.4226538,33.0032338 26.760023,34.7484889 24.7058824,35.8086261 L24.7060178,35.8086261 Z" id="Shape"></path>
                                            <path d="M34.7058824,4.36619092 C34.7058824,6.77946387 32.7311719,8.73417722 30.2950245,8.73417722 C27.8570634,8.73417722 25.8823529,6.77946387 25.8823529,4.36619092 C25.8823529,1.95471334 27.8570634,0 30.2950245,0 C32.7311719,0 34.7058824,1.95471334 34.7058824,4.36619092" id="Shape"></path>
                                            <path d="M19.7058824,16.8860759 C14.3446737,16.8860759 10,21.1869809 10,26.4936709 C10,31.8003609 14.3449039,36.1012658 19.7058824,36.1012658 C25.0652494,36.1012658 29.4117647,31.8003609 29.4117647,26.4936709 C29.4099664,21.1885759 25.0650653,16.8860759 19.7058824,16.8860759 Z M19.7058824,33.7943858 C15.6397429,33.7943858 12.3304799,30.5188622 12.3304799,26.4936709 C12.3304799,22.4669302 15.6395127,19.1915888 19.7058824,19.1915888 C23.7738174,19.1915888 27.082666,22.4671124 27.082666,26.4936709 C27.0808677,30.5204116 23.7718377,33.7943858 19.7058824,33.7943858 L19.7058824,33.7943858 Z" id="Shape"></path>
                                            <polygon id="Shape" points="19.889862 22.1265823 19.889862 25.302146 15.2941176 25.302146 15.2941176 27.6851957 19.889862 27.6851957 19.889862 30.8607595 24.7058824 26.4936944"></polygon>
                                        </g>
                                    </g>
                                </g>
                            </svg>