<svg width="53" height="54" viewBox="0 0 53 54" style="enable-background:new 0 0 53 54;">
                                <g>
                                    <g transform="translate(-674.000000, -2668.000000)">
                                        <g transform="translate(145.000000, 2476.000000)">
                                            <g transform="translate(529.000000, 192.000000)">
                                                <path d="M2.4,0C1.1,0,0,1.1,0,2.4V6c0,1.3,1.1,2.4,2.4,2.4v27.5c0,1.4,1.2,2.4,2.4,2.4h13l-4.2,13.2
                                                        c-0.4,0.9,0.2,2.1,1.1,2.4c0.9,0.3,2-0.3,2.3-1.3l1.9-5.9h15.3l1.9,5.9c0.2,1,1.3,1.6,2.3,1.3c0.9-0.3,1.5-1.5,1.1-2.4
                                                        l-4.2-13.2h13c1.2,0,2.4-1,2.4-2.4V8.4C51.9,8.4,53,7.3,53,6V2.4C53,1.1,51.9,0,50.6,0H2.4z M3.5,3.6h45.9v1.2H3.5V3.6z
                                                         M5.9,8.4h41.2v26.3H5.9V8.4z M34,10.8c-0.9,0-1.7,0.9-1.7,1.9c0,0.9,0.9,1.8,1.9,1.7H37l-8.7,8.8l-4.4-4.5
                                                        c-0.4-0.5-1-0.8-1.7-0.8c-0.4,0.1-0.8,0.2-1,0.5L10.5,29.3c-0.7,0.7-0.8,1.9-0.1,2.6c0.7,0.7,1.9,0.6,2.6-0.1l9.3-9.5l4.2,4.3
                                                        c0.2,0.5,0.8,1,1.4,1c0.6,0.1,1.2-0.1,1.6-0.6l9.9-10.1v2.9c0,0.9,0.8,1.8,1.8,1.8s1.8-0.9,1.8-1.8v-7.2c0-0.9-0.8-1.8-1.8-1.8
                                                        L34,10.8L34,10.8z M21.5,38.3h10l1.5,4.8H20L21.5,38.3z"/>
                                            </g>
                                        </g>
                                    </g>
                                </g>
                            </svg>