 <svg width="44" height="48" viewBox="0 0 44 48" style="enable-background:new 0 0 44 48;">
                                <g>
                                    <g transform="translate(-1070.000000, -2670.000000)">
                                        <g transform="translate(145.000000, 2476.000000)">
                                            <g transform="translate(925.000000, 194.000000)">
                                                <path d="M35.3,11.9c-1.5-0.3-2.7-2.2-2.7-3.8c0-0.5,0.1-1,0.3-1.3c0.6-1,0.7-1.7-0.2-2.5
                                                        c-0.9-0.8-1.7-1.6-2.9-0.6c-0.4,0.3-0.9,0.3-1.2,0.5c-1.5,0-3.8-1.4-4.1-2.4c-0.3-1-0.7-1.7-2-1.7h-0.3c-1.3-0.1-1.7,0.6-2,1.7
                                                        c-0.3,1-2.6,2.4-4.1,2.4C15.9,4,15.3,3.9,15,3.6c-1.3-1-2-0.2-2.9,0.6c-0.9,0.9-0.8,1.6-0.2,2.5c1,1.5-0.4,4.7-2.4,5.1
                                                        c-1.2,0.2-1.4,0.8-1.5,1.6v1.2c0.1,0.8,0.3,1.3,1.5,1.6c2,0.4,3.4,3.6,2.4,5.1c-0.6,0.9-0.7,1.7,0.2,2.5
                                                        c0.9,0.8,1.7,1.6,2.9,0.6c0.4-0.3,0.9-0.3,1.2-0.4c1.6,0,3.8,1.4,4.1,2.4c0.3,1,0.7,1.7,2,1.7h0.3c0.1,0,0.1,0,0.2,0
                                                        c1.2,0,1.5-0.7,1.8-1.7c0.1-0.3,0.3-0.7,0.7-1c0.9-0.8,2.3-1.4,3.4-1.4c0.3,0.1,0.8,0.2,1.2,0.4c1.3,1,2,0.3,2.9-0.6
                                                        c0.9-0.8,0.8-1.6,0.2-2.5c-1-1.6,0.4-4.7,2.4-5.1c1-0.2,1.4-0.7,1.5-1.3c0-0.1,0-0.2,0-0.3v-1.2C36.7,12.7,36.5,12.1,35.3,11.9
                                                        L35.3,11.9z M29.6,14.2v0.3c-0.3,3-2.5,5.5-5.4,6.2C23.6,20.9,23,21,22.4,21c-1.2,0-2.3-0.3-3.3-0.8c-2.1-1.1-3.7-3.2-3.9-5.6
                                                        v-1c0.3-3.6,3.4-6.4,7.2-6.5c2.9,0,5.4,1.7,6.6,4.2c0.3,0.7,0.5,1.5,0.6,2.3L29.6,14.2z"/>
                                                <path d="M44,43.1c-0.1-2.4-0.2-4.9-1-7.2c-0.2-0.7-0.5-1.4-0.9-1.9c-0.4-0.6-1.1-1.1-1.7-1.3
                                                        c-1.6-0.4-3.2-0.8-4.7-1.2c-2.4-0.6-4.8-1.2-7.2-1.8c-0.1,0-0.3,0-0.5,0c0,0.1-0.1,0.2-0.1,0.3c-0.4,1.6-0.8,3.1-1.3,4.7
                                                        c-0.6,1.8-1.2,3.7-1.8,5.5c-0.1,0.2-0.2,0.4-0.3,0.6c-0.1-0.8-0.3-1.9-0.4-3c-0.3-2-0.5-3.9-0.5-4c0.1-0.2,0.2-0.4,0.3-0.7
                                                        c0,0,0-0.1,0-0.1c0.1-0.1,0.1-0.3,0.2-0.4c0,0,0.1-0.1,0.1-0.2c0.1-0.2,0.2-0.3,0.2-0.6c0-0.2-0.1-0.3-0.1-0.5l0-0.1
                                                        c0,0,0,0,0-0.1c0,0,0-0.1-0.1-0.2l0,0c0,0,0,0,0,0c0-0.1-0.1-0.1-0.1-0.1c-0.1-0.1-0.2-0.1-0.2-0.1h-0.1c0,0-0.1,0-0.1,0
                                                        c-0.2,0-0.7,0-1.3,0c-0.6,0-1.1,0-1.3,0c0,0-0.1,0-0.1,0h-0.1c-0.1,0-0.2,0-0.3,0.2c0,0,0,0,0,0.1l0,0c0,0,0,0,0,0
                                                        c-0.1,0.1-0.2,0.3-0.2,0.5c0,0.1,0,0.2,0,0.3c0,0.2,0.1,0.4,0.2,0.6c0,0,0,0,0,0c0,0,0,0.1,0.1,0.1c0.1,0.1,0.1,0.3,0.2,0.4
                                                        c0,0,0,0,0,0.1c0.1,0.2,0.2,0.4,0.3,0.7c0,0-0.1,0.5-0.1,1.1c-0.2,1.5-0.5,4.2-0.8,5.8c-0.1-0.2-0.2-0.4-0.3-0.6
                                                        c-0.6-1.8-1.3-3.6-1.8-5.5c-0.5-1.5-0.9-3.1-1.3-4.7c0-0.1-0.1-0.2-0.1-0.3c-0.2,0-0.4,0-0.5,0c-2.2,0.5-4.3,1.1-6.5,1.6
                                                        c0,0,0,0,0,0c-1.8,0.5-3.7,0.9-5.5,1.4C3,32.9,2.4,33.4,2,33.9c0,0-0.1,0.1-0.1,0.1c-0.4,0.5-0.7,1.2-0.9,1.9
                                                        c-0.7,2.1-0.9,4.2-1,6.4c0,0.3,0,0.5,0,0.8C0,44.7-0.2,44.4,1.3,45c0.4,0.2,0.7,0.3,1.1,0.4c2.7,0.9,5.5,1.5,8.2,1.9
                                                        c2.7,0.4,5.5,0.6,8.2,0.7c0.5,0,4.7,0.1,4.7,0.1c0.5,0,1.1,0,1.6-0.1c4.4-0.2,8.7-0.6,12.9-1.6c1.2-0.3,2.4-0.6,3.5-1
                                                        c0.4-0.1,0.8-0.3,1.1-0.4C44.2,44.4,44,44.7,44,43.1L44,43.1z"/>
                                            </g>
                                        </g>
                                    </g>
                                </g>
                            </svg>