<svg width="34.9" height="49.5" viewBox="0 0 34.9 49.5" style="enable-background:new 0 0 34.9 49.5;">
                                <g>
                                    <g transform="translate(-283.000000, -2672.000000)">
                                        <g transform="translate(145.000000, 2476.000000)">
                                            <g transform="translate(138.000000, 196.000000)">
                                                <path d="M0.3,7.8c0.2-0.3,0.6-0.7,1.2-1.3c0.9-0.9,2-1.8,3.3-2.7C8.5,1.5,12.7,0,17.5,0s9,1.5,12.6,3.9
                                                        c1.3,0.8,2.4,1.8,3.3,2.7c0.6,0.6,1,1,1.2,1.3c0.2,0.3,0.3,0.6,0.3,0.9v26.2c0,1.3-0.8,2.7-1.8,3.5L18.3,49.2
                                                        c-0.5,0.4-1.2,0.4-1.7,0L1.8,38.4c-1-0.7-1.8-2.2-1.8-3.5V8.7C0,8.4,0.1,8.1,0.3,7.8L0.3,7.8z M10.7,21.3l-1,1
                                                        c-0.3,0.3-0.3,0.7,0,1l5.3,5.3c0.6,0.6,1.5,0.6,2.1,0l9.7-9.7c0.3-0.3,0.3-0.7,0-1l-1-1c-0.3-0.3-0.7-0.3-1,0L16,25.6l-4.3-4.3
                                                        C11.5,21,11,21,10.7,21.3L10.7,21.3z"/>
                                            </g>
                                        </g>
                                    </g>
                                </g>
                            </svg>