<svg viewBox="0 0 27.1 50" width="27px" height="50px">
                                <g>
                                    <g transform="translate(-286.000000, -2102.000000)">
                                        <g transform="translate(115.000000, 1920.000000)">
                                            <g transform="translate(171.000000, 182.000000)">
                                                <g>
                                                    <path d="M23.7,0H3.5C1.5,0,0,1.5,0,3.5v43.1C0,48.5,1.5,50,3.5,50h20.2c1.9,0,3.5-1.5,3.5-3.5V3.5
                                C27.1,1.5,25.6,0,23.7,0z M12.5,4.3h2.1c0.7,0,1.3,0.6,1.3,1.3s-0.6,1.3-1.3,1.3h-2.1c-0.7,0-1.3-0.6-1.3-1.3
                                S11.8,4.3,12.5,4.3z M15.7,45.2h-4.3c-0.7,0-1.3-0.6-1.3-1.3c0-0.7,0.6-1.3,1.3-1.3h4.3c0.7,0,1.3,0.6,1.3,1.3
                                C17,44.6,16.4,45.2,15.7,45.2z M24.5,39.4H2.7V9.6h21.8V39.4z"/>
                                                </g>
                                            </g>
                                        </g>
                                    </g>
                                </g>
                            </svg>