<svg viewBox="0 0 39 35" width="39px" height="35px">
                                <g>
                                    <g transform="translate(-1081.000000, -2105.000000)">
                                        <g transform="translate(115.000000, 1920.000000)">
                                            <g transform="translate(966.000000, 185.000000)">
                                                <g>
                                                    <path d="M23.5,6.2h-8C16,1.1,23,1.2,23.5,6.2z M21,23.9h-3c-0.4,0-0.7-0.3-0.7-0.7l0-4.2
						c0-0.4,0.3-0.7,0.7-0.7h3c0.4,0,0.7,0.3,0.7,0.7v4.2C21.7,23.6,21.4,23.9,21,23.9L21,23.9z M3.8,35h31.4c2.1,0,3.8-1.7,3.8-3.8
						V16.4l-16.1,4.4V24c0,0.5-0.4,1-1,1h-4.8c-0.5,0-1-0.4-1-1v-3.1L0,16.4v14.8C0,33.3,1.7,35,3.8,35L3.8,35z M39,15v-5
						c0-2.1-1.7-3.8-3.8-3.8h-9c-0.5-8.2-13-8.3-13.3,0h-9C1.7,6.2,0,7.9,0,10v5l16.1,4.4v-1.2c0-0.5,0.4-1,1-1h4.8c0.5,0,1,0.4,1,1
						v1.2L39,15z"/>
                                                </g>
                                            </g>
                                        </g>
                                    </g>
                                </g>
                            </svg>