<?xml version="1.0" encoding="utf-8"?>
<!-- Generator: Adobe Illustrator 21.1.0, SVG Export Plug-In . SVG Version: 6.00 Build 0)  -->
<svg version="1.1" id="Layer_1" xmlns="http://www.w3.org/2000/svg" xmlns:xlink="http://www.w3.org/1999/xlink" x="0px" y="0px"
	 viewBox="0 0 41 41" style="enable-background:new 0 0 41 41;" xml:space="preserve">
<style type="text/css">
	.st0{fill:#0200FF;}
	.st1{fill:#5452FF;}
</style>
<title>Group</title>
<desc>Created with Sketch.</desc>
<g id="Page-1">
	<g id="request-quote" transform="translate(-1047.000000, -657.000000)">
		<g id="Group" transform="translate(1047.000000, 657.000000)">
			<circle id="Oval-4" class="st0" cx="20.5" cy="20.5" r="20.5"/>
			<path id="Rectangle-10-Copy" class="st1" d="M20.5,8L20.5,8C21.3,8,22,8.7,22,9.5v22c0,0.8-0.7,1.5-1.5,1.5l0,0
				c-0.8,0-1.5-0.7-1.5-1.5v-22C19,8.7,19.7,8,20.5,8z"/>
			<path id="Rectangle-10-Copy-2" class="st1" d="M12.5,11L12.5,11c0.8,0,1.5,0.7,1.5,1.5v16c0,0.8-0.7,1.5-1.5,1.5l0,0
				c-0.8,0-1.5-0.7-1.5-1.5v-16C11,11.7,11.7,11,12.5,11z"/>
			<path id="Rectangle-10-Copy-3" class="st1" d="M28.5,11L28.5,11c0.8,0,1.5,0.7,1.5,1.5v16c0,0.8-0.7,1.5-1.5,1.5l0,0
				c-0.8,0-1.5-0.7-1.5-1.5v-16C27,11.7,27.7,11,28.5,11z"/>
		</g>
	</g>
</g>
</svg>
