<svg width="58px" height="58px" viewBox="0 0 58 58">
                                <defs>
                                    <radialGradient cx="29.0641521%" cy="99.7419113%" fx="29.0641521%" fy="99.7419113%" r="100.80971%" gradientTransform="translate(0.290642,0.997419),scale(0.998130,1.000000),translate(-0.290642,-0.997419)" id="radialGradient-1">
                                        <stop stop-color="#FFD776" offset="0%"></stop>
                                        <stop stop-color="#F3A554" offset="24.63%"></stop>
                                        <stop stop-color="#F15C3C" offset="37.93%"></stop>
                                        <stop stop-color="#D94867" offset="53.94%"></stop>
                                        <stop stop-color="#C32F87" offset="69.95%"></stop>
                                        <stop stop-color="#7D63A7" offset="91.22%"></stop>
                                        <stop stop-color="#5C6CB3" offset="98.52%"></stop>
                                    </radialGradient>
                                </defs>
                                <g stroke="none" stroke-width="1" fill="none" fill-rule="evenodd">
                                    <g fill-rule="nonzero" fill="url(#radialGradient-1)">
                                        <path d="M57.9819315,45.252648 C57.9819315,52.2542056 52.335514,57.9277259 45.3700935,57.9277259 L12.6299065,57.9277259 C5.66448598,57.9277259 0.0180685358,52.2542056 0.0180685358,45.252648 L0.0180685358,12.747352 C0.0180685358,5.74579439 5.66448598,0.0722741433 12.6299065,0.0722741433 L45.3700935,0.0722741433 C52.335514,0.0722741433 57.9819315,5.74579439 57.9819315,12.747352 L57.9819315,45.252648 L57.9819315,45.252648 Z M37.7271028,50.7816199 C44.4666667,50.7816199 49.9866044,45.2707165 49.9866044,38.5221184 L49.9866044,19.7489097 C49.9866044,13.0093458 44.4666667,7.4894081 37.7271028,7.4894081 L20.1102804,7.4894081 C13.3707165,7.4894081 7.85077882,13.0093458 7.85077882,19.7489097 L7.85077882,38.5221184 C7.85077882,45.2616822 13.3707165,50.7816199 20.1102804,50.7816199 L37.7271028,50.7816199 Z M37.7271028,47.547352 L37.7271028,47.547352 L20.1102804,47.547352 C17.7161994,47.547352 15.4576324,46.6077882 13.7411215,44.8912773 C12.0246106,43.1747664 11.0850467,40.9161994 11.0850467,38.5221184 L11.0850467,19.7489097 C11.0850467,17.3548287 12.0246106,15.0962617 13.7411215,13.3797508 C15.4576324,11.6632399 17.7161994,10.723676 20.1102804,10.723676 L37.7271028,10.723676 C40.1211838,10.723676 42.3797508,11.6632399 44.0962617,13.3797508 C45.8127726,15.0962617 46.7523364,17.3548287 46.7523364,19.7489097 L46.7523364,38.5221184 C46.7523364,40.9161994 45.8127726,43.1747664 44.0962617,44.8912773 C42.3797508,46.6077882 40.1211838,47.547352 37.7271028,47.547352 Z M40.5819315,28.9728972 C40.5819315,22.558567 35.3872274,17.3728972 28.9819315,17.3728972 C22.5766355,17.3728972 17.3819315,22.5676012 17.3819315,28.9728972 C17.3819315,35.3781931 22.5766355,40.5728972 28.9819315,40.5728972 C35.3872274,40.5728972 40.5819315,35.3781931 40.5819315,28.9728972 Z M28.9186916,21.3841121 C33.1196262,21.3841121 36.5165109,24.7900312 36.5165109,28.9819315 C36.5165109,33.1738318 33.1105919,36.5797508 28.9186916,36.5797508 C24.7267913,36.5797508 21.3208723,33.1738318 21.3208723,28.9819315 C21.3208723,24.7900312 24.7267913,21.3841121 28.9186916,21.3841121 Z M40.7716511,19.929595 C42.2884556,19.929595 43.5180685,18.699982 43.5180685,17.1831776 C43.5180685,15.6663731 42.2884556,14.4367601 40.7716511,14.4367601 C39.2548466,14.4367601 38.0252336,15.6663731 38.0252336,17.1831776 C38.0252336,18.699982 39.2548466,19.929595 40.7716511,19.929595 Z"></path>
                                    </g>
                                </g>
                            </svg>